<svg width="1131" height="231" viewBox="0 0 1131 231" fill="none" xmlns="http://www.w3.org/2000/svg">
<path fill-rule="evenodd" clip-rule="evenodd" d="M282.722 56.6325C282.731 56.63 282.712 56.7201 282.637 56.9107C282.675 56.7304 282.713 56.6351 282.722 56.6325ZM277.645 63.1013C271.028 62.533 261.709 62.8737 249.766 64.559C221.86 68.4971 184.169 79.1036 143.668 95.7813C103.167 112.459 68.8086 131.521 46.026 148.456C36.2976 155.687 29.3594 162.032 24.9745 167.125L0.64858 177.14C-6.97328 155.669 53.4491 110.905 136.198 76.8302C218.975 42.7439 292.907 32.1972 301.935 53.1011L277.645 63.1013ZM16.8986 166.094C16.907 166.089 16.9987 166.131 17.1484 166.234C16.965 166.15 16.8902 166.099 16.8986 166.094Z" fill="url(#paint0_linear_140_2)"/>
<path fill-rule="evenodd" clip-rule="evenodd" d="M282.722 56.6325C282.731 56.63 282.712 56.7201 282.637 56.9107C282.675 56.7304 282.713 56.6351 282.722 56.6325ZM277.645 63.1013C271.028 62.533 261.709 62.8737 249.766 64.559C221.86 68.4971 184.169 79.1036 143.668 95.7813C103.167 112.459 68.8086 131.521 46.026 148.456C36.2976 155.687 29.3594 162.032 24.9745 167.125L0.64858 177.14C-6.97328 155.669 53.4491 110.905 136.198 76.8302C218.975 42.7439 292.907 32.1972 301.935 53.1011L277.645 63.1013ZM16.8986 166.094C16.907 166.089 16.9987 166.131 17.1484 166.234C16.965 166.15 16.8902 166.099 16.8986 166.094Z" fill="white" fill-opacity="0.85"/>
<ellipse cx="151.555" cy="115.5" rx="115.704" ry="115.5" fill="url(#paint1_linear_140_2)"/>
<ellipse cx="151.555" cy="115.5" rx="115.704" ry="115.5" fill="black" fill-opacity="0.2"/>
<path fill-rule="evenodd" clip-rule="evenodd" d="M0.579102 176.939C0.640593 177.124 0.707037 177.307 0.778462 177.488C9.18741 198.82 83.4499 188.34 166.648 154.08C249.847 119.82 310.476 74.7545 302.067 53.4226C301.999 53.2488 301.926 53.0772 301.848 52.9077L277.181 63.0634C277.595 63.0958 278 63.1316 278.394 63.1708C274.046 68.3635 266.944 74.9294 256.82 82.4547C234.037 99.3892 199.679 118.451 159.178 135.129C118.677 151.807 80.9855 162.413 53.0798 166.351C40.6792 168.101 31.1071 168.402 24.4517 167.74C24.7183 167.421 24.9954 167.098 25.2828 166.769L0.579102 176.939ZM20.1241 174.278C20.1148 174.28 20.1339 174.19 20.2089 174C20.1708 174.18 20.1333 174.275 20.1241 174.278ZM285.698 64.6762C285.881 64.7603 285.956 64.8118 285.947 64.8165C285.939 64.8212 285.847 64.7791 285.698 64.6762Z" fill="url(#paint2_linear_140_2)"/>
<path fill-rule="evenodd" clip-rule="evenodd" d="M0.579102 176.939C0.640593 177.124 0.707037 177.307 0.778462 177.488C9.18741 198.82 83.4499 188.34 166.648 154.08C249.847 119.82 310.476 74.7545 302.067 53.4226C301.999 53.2488 301.926 53.0772 301.848 52.9077L277.181 63.0634C277.595 63.0958 278 63.1316 278.394 63.1708C274.046 68.3635 266.944 74.9294 256.82 82.4547C234.037 99.3892 199.679 118.451 159.178 135.129C118.677 151.807 80.9855 162.413 53.0798 166.351C40.6792 168.101 31.1071 168.402 24.4517 167.74C24.7183 167.421 24.9954 167.098 25.2828 166.769L0.579102 176.939ZM20.1241 174.278C20.1148 174.28 20.1339 174.19 20.2089 174C20.1708 174.18 20.1333 174.275 20.1241 174.278ZM285.698 64.6762C285.881 64.7603 285.956 64.8118 285.947 64.8165C285.939 64.8212 285.847 64.7791 285.698 64.6762Z" fill="white" fill-opacity="0.85"/>
<path d="M405.763 189L357.508 39.4088H400.335L435.621 162.158H437.129L472.717 39.4088H515.242L466.987 189H405.763ZM589.293 192.619C574.013 192.619 560.441 189.402 548.578 182.968C536.916 176.534 527.768 167.486 521.133 155.825C514.498 144.163 511.18 130.792 511.18 115.712C511.18 100.029 514.397 86.2565 520.831 74.3938C527.466 62.33 536.615 52.88 548.276 46.0438C560.139 39.2077 573.811 35.7896 589.293 35.7896C604.373 35.7896 617.543 39.0066 628.802 45.4407C640.062 51.8747 648.909 60.7215 655.343 71.981C661.777 83.0395 664.994 95.606 664.994 109.68C664.994 111.691 664.893 114.003 664.692 116.617C664.692 119.03 664.592 121.543 664.391 124.157H540.133V99.1246H623.675C623.072 89.6746 619.553 82.1347 613.119 76.505C606.886 70.8752 599.045 68.0603 589.595 68.0603C582.558 68.0603 576.124 69.6688 570.293 72.8858C564.462 75.9018 559.838 80.6268 556.419 87.0608C553.001 93.2938 551.292 101.236 551.292 110.887V119.633C551.292 127.877 552.901 135.014 556.118 141.046C559.335 146.877 563.758 151.401 569.388 154.618C575.219 157.835 581.753 159.444 588.992 159.444C596.431 159.444 602.664 157.835 607.691 154.618C612.717 151.2 616.537 146.877 619.151 141.65H660.47C657.655 151.1 652.93 159.745 646.295 167.587C639.66 175.227 631.517 181.36 621.866 185.984C612.215 190.407 601.357 192.619 589.293 192.619ZM673.947 189V39.4088H708.631L712.25 63.838H713.456C718.282 54.9912 724.816 48.155 733.06 43.3295C741.304 38.3029 751.658 35.7896 764.124 35.7896C776.59 35.7896 787.146 38.504 795.792 43.9327C804.438 49.1603 810.972 56.9013 815.396 67.1555C820.02 77.4098 822.332 90.0768 822.332 105.157V189H781.617V108.776C781.617 96.3097 779.104 86.7592 774.077 80.1241C769.05 73.489 761.108 70.1715 750.251 70.1715C743.415 70.1715 737.282 71.8805 731.854 75.2986C726.425 78.5156 722.203 83.2406 719.187 89.4736C716.171 95.5055 714.663 102.945 714.663 111.792V189H673.947ZM892.719 192.619C880.455 192.619 869.999 190.005 861.353 184.778C852.708 179.55 846.073 171.809 841.448 161.555C836.824 151.1 834.511 138.332 834.511 123.252V39.4088H874.925V119.633C874.925 132.099 877.439 141.65 882.465 148.285C887.693 154.92 895.735 158.237 906.593 158.237C913.63 158.237 919.762 156.629 924.99 153.412C930.419 149.994 934.641 145.168 937.657 138.935C940.673 132.702 942.181 125.263 942.181 116.617V39.4088H982.896V189H948.213L944.594 165.174H943.387C938.763 173.619 932.228 180.354 923.784 185.381C915.54 190.206 905.185 192.619 892.719 192.619ZM1060.82 192.619C1047.55 192.619 1035.79 190.407 1025.54 185.984C1015.48 181.561 1007.34 175.529 1001.11 167.888C995.076 160.047 991.557 151.2 990.552 141.348H1031.27C1032.07 144.967 1033.68 148.385 1036.09 151.602C1038.51 154.819 1041.72 157.433 1045.74 159.444C1049.97 161.253 1054.79 162.158 1060.22 162.158C1065.85 162.158 1070.37 161.454 1073.79 160.047C1077.21 158.438 1079.72 156.428 1081.33 154.015C1083.14 151.602 1084.05 148.988 1084.05 146.173C1084.05 142.353 1082.74 139.438 1080.13 137.427C1077.71 135.216 1074.09 133.305 1069.27 131.697C1064.64 130.088 1059.11 128.379 1052.68 126.57C1046.05 124.76 1039.31 122.85 1032.47 120.839C1025.84 118.829 1019.71 116.316 1014.08 113.3C1008.45 110.083 1003.92 106.061 1000.5 101.236C997.287 96.2092 995.679 89.9762 995.679 82.5369C995.679 73.8911 998.092 66.0497 1002.92 59.0124C1007.74 51.9752 1014.68 46.3454 1023.73 42.1231C1032.98 37.9008 1043.93 35.7896 1056.6 35.7896C1074.7 35.7896 1089.07 39.9114 1099.73 48.155C1110.59 56.3986 1116.92 67.7587 1118.73 82.2353H1080.43C1079.42 77.2087 1076.81 73.288 1072.59 70.4731C1068.56 67.6582 1063.24 66.2507 1056.6 66.2507C1049.56 66.2507 1044.14 67.6582 1040.31 70.4731C1036.7 73.0869 1034.89 76.3039 1034.89 80.1241C1034.89 82.939 1036.09 85.3518 1038.51 87.3624C1040.92 89.172 1044.44 90.881 1049.06 92.4895C1053.89 93.897 1059.62 95.5055 1066.25 97.315C1076.91 100.13 1086.66 103.146 1095.51 106.363C1104.35 109.58 1111.39 114.003 1116.62 119.633C1121.85 125.062 1124.46 132.803 1124.46 142.856C1124.66 152.507 1122.15 161.052 1116.92 168.492C1111.69 175.931 1104.35 181.862 1094.9 186.286C1085.45 190.508 1074.09 192.619 1060.82 192.619Z" fill="white"/>
<defs>
<linearGradient id="paint0_linear_140_2" x1="0" y1="42.3704" x2="100.735" y2="267.262" gradientUnits="userSpaceOnUse">
<stop stop-color="#00D1FF"/>
<stop offset="1" stop-color="#FF4DCD"/>
</linearGradient>
<linearGradient id="paint1_linear_140_2" x1="71.7034" y1="26.0741" x2="229.574" y2="202.278" gradientUnits="userSpaceOnUse">
<stop stop-color="#5BCEFA"/>
<stop offset="0.479167" stop-color="#BFA2DC"/>
<stop offset="1" stop-color="#F5A9B8"/>
</linearGradient>
<linearGradient id="paint2_linear_140_2" x1="0.579102" y1="52.9077" x2="102.316" y2="278.839" gradientUnits="userSpaceOnUse">
<stop stop-color="#00D1FF"/>
<stop offset="1" stop-color="#FF4DCD"/>
</linearGradient>
</defs>
</svg>
