<svg width="315" height="65" viewBox="0 0 315 65" fill="none" xmlns="http://www.w3.org/2000/svg">
<path fill-rule="evenodd" clip-rule="evenodd" d="M79.1531 16.1902C79.1557 16.1895 79.1504 16.2144 79.1296 16.2672C79.1402 16.2173 79.1506 16.1909 79.1531 16.1902ZM77.7464 17.9824C75.9131 17.825 73.3312 17.9194 70.0225 18.3863C62.2911 19.4774 51.8485 22.416 40.6273 27.0366C29.4062 31.6573 19.8871 36.9386 13.575 41.6304C10.8797 43.6338 8.95747 45.3919 7.74258 46.8027L1.00293 49.5774C-1.10874 43.6287 15.6317 31.2266 38.5576 21.7861C61.4916 12.3423 81.9749 9.42023 84.4762 15.2118L77.7464 17.9824ZM5.5051 46.5172C5.50743 46.5159 5.53283 46.5275 5.57431 46.556C5.52351 46.5327 5.50277 46.5185 5.5051 46.5172Z" fill="url(#paint0_linear_140_2)"/>
<path fill-rule="evenodd" clip-rule="evenodd" d="M79.1531 16.1902C79.1557 16.1895 79.1504 16.2144 79.1296 16.2672C79.1402 16.2173 79.1506 16.1909 79.1531 16.1902ZM77.7464 17.9824C75.9131 17.825 73.3312 17.9194 70.0225 18.3863C62.2911 19.4774 51.8485 22.416 40.6273 27.0366C29.4062 31.6573 19.8871 36.9386 13.575 41.6304C10.8797 43.6338 8.95747 45.3919 7.74258 46.8027L1.00293 49.5774C-1.10874 43.6287 15.6317 31.2266 38.5576 21.7861C61.4916 12.3423 81.9749 9.42023 84.4762 15.2118L77.7464 17.9824ZM5.5051 46.5172C5.50743 46.5159 5.53283 46.5275 5.57431 46.556C5.52351 46.5327 5.50277 46.5185 5.5051 46.5172Z" fill="white" fill-opacity="0.85"/>
<ellipse cx="42.8133" cy="32.5" rx="32.0564" ry="32" fill="url(#paint1_linear_140_2)"/>
<ellipse cx="42.8133" cy="32.5" rx="32.0564" ry="32" fill="black" fill-opacity="0.2"/>
<path fill-rule="evenodd" clip-rule="evenodd" d="M0.984375 49.5222C1.00142 49.5733 1.01983 49.624 1.03963 49.6742C3.36938 55.5844 23.9443 52.6808 46.995 43.189C70.0456 33.6971 86.8432 21.2113 84.5135 15.3011C84.4945 15.253 84.4743 15.2054 84.4529 15.1584L77.6184 17.9722C77.7334 17.9811 77.8454 17.9911 77.9547 18.0019C76.7502 19.4406 74.7824 21.2598 71.9775 23.3447C65.6655 28.0365 56.1463 33.3178 44.9252 37.9384C33.7041 42.5591 23.2615 45.4977 15.53 46.5888C12.0944 47.0736 9.44237 47.1568 7.59843 46.9734C7.67234 46.8852 7.74912 46.7954 7.82878 46.7043L0.984375 49.5222ZM6.39945 48.7849C6.39689 48.7856 6.40217 48.7606 6.42296 48.7078C6.41241 48.7577 6.40201 48.7841 6.39945 48.7849ZM79.9783 18.419C80.0291 18.4423 80.0498 18.4566 80.0475 18.4579C80.0451 18.4592 80.0197 18.4475 79.9783 18.419Z" fill="url(#paint2_linear_140_2)"/>
<path fill-rule="evenodd" clip-rule="evenodd" d="M0.984375 49.5222C1.00142 49.5733 1.01983 49.624 1.03963 49.6742C3.36938 55.5844 23.9443 52.6808 46.995 43.189C70.0456 33.6971 86.8432 21.2113 84.5135 15.3011C84.4945 15.253 84.4743 15.2054 84.4529 15.1584L77.6184 17.9722C77.7334 17.9811 77.8454 17.9911 77.9547 18.0019C76.7502 19.4406 74.7824 21.2598 71.9775 23.3447C65.6655 28.0365 56.1463 33.3178 44.9252 37.9384C33.7041 42.5591 23.2615 45.4977 15.53 46.5888C12.0944 47.0736 9.44237 47.1568 7.59843 46.9734C7.67234 46.8852 7.74912 46.7954 7.82878 46.7043L0.984375 49.5222ZM6.39945 48.7849C6.39689 48.7856 6.40217 48.7606 6.42296 48.7078C6.41241 48.7577 6.40201 48.7841 6.39945 48.7849ZM79.9783 18.419C80.0291 18.4423 80.0498 18.4566 80.0475 18.4579C80.0451 18.4592 80.0197 18.4475 79.9783 18.419Z" fill="white" fill-opacity="0.85"/>
<path d="M113.244 52.3052L99.8748 10.86H111.74L121.517 44.8684H121.934L131.794 10.86H143.576L130.207 52.3052H113.244ZM164.092 53.3079C159.859 53.3079 156.099 52.4166 152.812 50.634C149.581 48.8514 147.046 46.3446 145.208 43.1137C143.37 39.8828 142.451 36.1783 142.451 32.0004C142.451 27.6553 143.342 23.8395 145.125 20.5528C146.963 17.2105 149.497 14.5923 152.728 12.6983C156.015 10.8043 159.803 9.85728 164.092 9.85728C168.27 9.85728 171.919 10.7486 175.039 12.5312C178.158 14.3137 180.609 16.7648 182.392 19.8843C184.174 22.9482 185.066 26.4298 185.066 30.3292C185.066 30.8863 185.038 31.5269 184.982 32.2511C184.982 32.9195 184.954 33.6158 184.899 34.34H150.472V27.4046H173.618C173.451 24.7865 172.476 22.6975 170.694 21.1377C168.967 19.578 166.794 18.7981 164.176 18.7981C162.226 18.7981 160.444 19.2437 158.828 20.135C157.213 20.9706 155.931 22.2797 154.984 24.0623C154.037 25.7892 153.564 27.9895 153.564 30.6634V33.0866C153.564 35.3706 154.01 37.3481 154.901 39.0193C155.792 40.6348 157.018 41.8882 158.578 42.7795C160.193 43.6708 162.003 44.1164 164.009 44.1164C166.07 44.1164 167.797 43.6708 169.19 42.7795C170.582 41.8325 171.641 40.6348 172.365 39.1864H183.812C183.032 41.8046 181.723 44.2 179.885 46.3725C178.047 48.4893 175.791 50.1884 173.117 51.4696C170.443 52.6951 167.435 53.3079 164.092 53.3079ZM187.546 52.3052V10.86H197.156L198.158 17.6282H198.493C199.829 15.1772 201.64 13.2832 203.924 11.9462C206.208 10.5536 209.077 9.85728 212.53 9.85728C215.984 9.85728 218.909 10.6093 221.304 12.1134C223.699 13.5617 225.51 15.7064 226.735 18.5474C228.017 21.3884 228.657 24.8979 228.657 29.0758V52.3052H217.377V30.0785C217.377 26.6248 216.681 23.9787 215.288 22.1404C213.895 20.3021 211.695 19.383 208.687 19.383C206.793 19.383 205.094 19.8565 203.59 20.8035C202.086 21.6948 200.916 23.0039 200.08 24.7308C199.245 26.4019 198.827 28.463 198.827 30.9141V52.3052H187.546ZM248.159 53.3079C244.76 53.3079 241.864 52.5837 239.468 51.1354C237.073 49.687 235.235 47.5423 233.953 44.7013C232.672 41.8046 232.032 38.2673 232.032 34.0893V10.86H243.229V33.0866C243.229 36.5404 243.925 39.1864 245.318 41.0247C246.766 42.863 248.994 43.7822 252.002 43.7822C253.952 43.7822 255.651 43.3365 257.099 42.4452C258.603 41.4982 259.773 40.1613 260.609 38.4344C261.444 36.7075 261.862 34.6464 261.862 32.2511V10.86H273.143V52.3052H263.533L262.531 45.704H262.196C260.915 48.0437 259.105 49.9098 256.765 51.3025C254.481 52.6394 251.612 53.3079 248.159 53.3079ZM294.733 53.3079C291.056 53.3079 287.797 52.6951 284.956 51.4696C282.171 50.2441 279.915 48.5729 278.188 46.4561C276.517 44.2835 275.542 41.8325 275.264 39.1029H286.544C286.767 40.1056 287.212 41.0526 287.881 41.9439C288.549 42.8352 289.441 43.5593 290.555 44.1164C291.725 44.6178 293.062 44.8684 294.566 44.8684C296.125 44.8684 297.379 44.6735 298.326 44.2835C299.273 43.8379 299.969 43.2808 300.415 42.6123C300.916 41.9439 301.167 41.2197 301.167 40.4398C301.167 39.3814 300.805 38.5737 300.081 38.0166C299.412 37.4038 298.409 36.8746 297.072 36.429C295.791 35.9833 294.259 35.5098 292.477 35.0085C290.638 34.5071 288.772 33.9779 286.878 33.4209C285.04 32.8638 283.341 32.1675 281.781 31.3319C280.221 30.4406 278.968 29.3265 278.021 27.9895C277.13 26.5969 276.684 24.87 276.684 22.8089C276.684 20.4135 277.353 18.241 278.689 16.2913C280.026 14.3416 281.948 12.7818 284.455 11.612C287.018 10.4422 290.053 9.85728 293.563 9.85728C298.576 9.85728 302.559 10.9992 305.512 13.2832C308.52 15.5671 310.275 18.7145 310.776 22.7253H300.164C299.886 21.3327 299.161 20.2464 297.992 19.4665C296.877 18.6867 295.401 18.2967 293.563 18.2967C291.613 18.2967 290.109 18.6867 289.051 19.4665C288.048 20.1907 287.547 21.082 287.547 22.1404C287.547 22.9203 287.881 23.5888 288.549 24.1458C289.218 24.6472 290.193 25.1207 291.474 25.5663C292.811 25.9563 294.399 26.4019 296.237 26.9033C299.189 27.6832 301.891 28.5188 304.342 29.41C306.793 30.3013 308.743 31.5269 310.191 33.0866C311.64 34.5907 312.364 36.7354 312.364 39.5207C312.419 42.1946 311.723 44.5621 310.275 46.6232C308.826 48.6843 306.793 50.3276 304.175 51.5531C301.557 52.723 298.409 53.3079 294.733 53.3079Z" fill="white"/>
<defs>
<linearGradient id="paint0_linear_140_2" x1="0.823242" y1="12.2388" x2="28.7326" y2="74.5465" gradientUnits="userSpaceOnUse">
<stop stop-color="#00D1FF"/>
<stop offset="1" stop-color="#FF4DCD"/>
</linearGradient>
<linearGradient id="paint1_linear_140_2" x1="20.6898" y1="7.72399" x2="64.4288" y2="56.5423" gradientUnits="userSpaceOnUse">
<stop stop-color="#5BCEFA"/>
<stop offset="0.479167" stop-color="#BFA2DC"/>
<stop offset="1" stop-color="#F5A9B8"/>
</linearGradient>
<linearGradient id="paint2_linear_140_2" x1="0.984375" y1="15.1584" x2="29.1713" y2="77.7541" gradientUnits="userSpaceOnUse">
<stop stop-color="#00D1FF"/>
<stop offset="1" stop-color="#FF4DCD"/>
</linearGradient>
</defs>
</svg>
